<svg width="22" height="22" viewBox="0 0 22 22" fill="none" xmlns="http://www.w3.org/2000/svg">
<path opacity="0.5" d="M17.7547 10.8423C16.3268 12.1924 14.0187 12.1924 12.6016 10.8423C14.0294 12.1924 14.0294 14.375 12.6016 15.7151C14.0294 14.3649 16.3375 14.3649 17.7547 15.7151C16.3375 14.375 16.3375 12.1924 17.7547 10.8423Z" fill="#FCCE38"/>
<path d="M15.1795 16.5876C17.1124 16.5876 18.6793 15.1059 18.6793 13.2782C18.6793 11.4504 17.1124 9.96875 15.1795 9.96875C13.2466 9.96875 11.6797 11.4504 11.6797 13.2782C11.6797 15.1059 13.2466 16.5876 15.1795 16.5876Z" fill="url(#paint0_radial_182_1822)"/>
<path d="M12.3012 12.9436L9.01611 13.2685C8.99463 13.2685 8.99463 13.2989 9.01611 13.3091L12.3012 13.6339C13.4929 13.7456 14.4376 14.6491 14.5557 15.7759L15.1676 21.5623C15.1676 21.5827 15.1998 21.5827 15.2105 21.5623L15.801 15.7759C15.9191 14.6491 16.8638 13.7456 18.0555 13.6339L21.362 13.3091C21.3835 13.3091 21.3835 13.2786 21.362 13.2685L18.0555 12.9436C16.8638 12.8218 15.9191 11.9285 15.801 10.8016L15.2105 5.01523C15.2105 4.99492 15.1783 4.99492 15.1676 5.01523L14.5557 10.8118C14.4268 11.9285 13.4929 12.8218 12.3012 12.9436Z" fill="url(#paint1_linear_182_1822)"/>
<path d="M15.3168 13.1164C16.0146 13.9489 21.3502 13.2992 21.3502 13.2992C21.3717 13.2992 21.3717 13.2687 21.3502 13.2586L18.0437 12.9337C16.852 12.8119 15.9073 11.9186 15.7892 10.7917L15.2309 5.37077L15.1987 5.35046C15.1987 5.35046 14.5654 12.2129 15.3168 13.1164Z" fill="url(#paint2_linear_182_1822)"/>
<path d="M12.3007 13.6237C13.4924 13.7353 14.4371 14.6388 14.5552 15.7657L14.9524 19.5015C14.9524 19.5015 15.0812 14.4561 13.9003 13.7252C12.9771 13.1567 13.2454 13.7049 9.01562 13.2988L12.3007 13.6237Z" fill="url(#paint3_linear_182_1822)"/>
<path d="M15.5866 15.1969C15.3289 18.1611 15.2216 19.6027 15.0391 20.3945L15.1572 21.5518C15.1572 21.572 15.1894 21.572 15.2001 21.5518L15.7906 15.7654C15.9087 14.6385 16.8534 13.735 18.045 13.6234L20.2244 13.4102C17.6908 13.1259 15.7369 13.4914 15.5866 15.1969Z" fill="url(#paint4_linear_182_1822)"/>
<path d="M15.1992 5.00525L15.7897 10.7917C15.9078 11.9185 16.8525 12.822 18.0441 12.9336L21.3507 13.2585C21.3507 13.2585 18.6024 13.1164 18.0227 13.1164C17.4429 13.1164 15.7467 12.7915 15.5857 10.8018C15.4247 8.80194 15.1992 5.00525 15.1992 5.00525Z" fill="url(#paint5_linear_182_1822)"/>
<path d="M15.1593 5.00537L14.5688 10.7918C14.4508 11.9186 13.506 12.8221 12.3144 12.9338L9.00781 13.2586C9.00781 13.2586 11.7561 13.1165 12.3358 13.1165C12.9156 13.1165 14.6118 12.7916 14.7728 10.8019C14.9338 8.80206 15.1593 5.00537 15.1593 5.00537Z" fill="url(#paint6_linear_182_1822)"/>
<path opacity="0.5" d="M6.62055 3.03088C5.50402 4.08664 3.68974 4.08664 2.5625 3.03088C3.67903 4.08664 3.67903 5.80227 2.5625 6.86819C3.67903 5.81241 5.49332 5.81241 6.62055 6.86819C5.50402 5.80227 5.50402 4.08664 6.62055 3.03088Z" fill="#FCCE38"/>
<path d="M4.80592 7.39806C6.3059 7.39806 7.522 6.24817 7.522 4.82972C7.522 3.41125 6.3059 2.26135 4.80592 2.26135C3.30576 2.26135 2.08984 3.41125 2.08984 4.82972C2.08984 6.24817 3.30576 7.39806 4.80592 7.39806Z" fill="url(#paint7_radial_182_1822)"/>
<path d="M7.04795 5.02251L9.60303 4.83978C9.62444 4.83978 9.62444 4.81947 9.60303 4.81947L7.04795 4.63674C6.12475 4.56568 5.38396 4.04794 5.29792 3.38811L4.82561 0.00762131C4.82561 -0.00254044 4.79348 -0.00254044 4.79348 0.00762131L4.33188 3.37794C4.24583 4.0378 3.50524 4.56568 2.58184 4.6266L0.0160631 4.81947C-0.00535438 4.81947 -0.00535438 4.83978 0.0160631 4.83978L2.58184 5.03266C3.51595 5.10372 4.24583 5.62145 4.33188 6.28131L4.79348 9.65168C4.79348 9.66181 4.82561 9.66181 4.82561 9.65168L5.29792 6.27115C5.38396 5.61131 6.12475 5.09357 7.04795 5.02251Z" fill="url(#paint8_linear_182_1822)"/>
<path d="M4.70762 4.921C4.15997 4.43373 0.0160631 4.80933 0.0160631 4.80933C-0.00535437 4.80933 -0.00535437 4.82963 0.0160631 4.82963L2.58184 5.02251C3.51595 5.09357 4.24583 5.6113 4.33188 6.27116L4.76117 9.42832L4.79348 9.43844C4.79348 9.44857 5.28721 5.44888 4.70762 4.921Z" fill="url(#paint9_linear_182_1822)"/>
<path d="M2.5707 5.02307C3.4939 5.09413 4.23468 5.61186 4.32054 6.27172L4.62114 8.45431C4.62114 8.45431 4.7177 5.51033 3.80521 5.08396C3.08603 4.74896 3.30077 5.07382 0.015625 4.84033L2.5707 5.02307Z" fill="url(#paint10_linear_182_1822)"/>
<path d="M4.49388 3.71294C4.68701 1.98717 4.78376 1.1446 4.92335 0.687783L4.8266 0.00762131C4.8266 -0.00254044 4.79447 -0.00254044 4.79447 0.00762131L4.33287 3.37794C4.24701 4.0378 3.50623 4.56568 2.58283 4.6266L0.886719 4.74841C2.8513 4.91084 4.3757 4.7078 4.49388 3.71294Z" fill="url(#paint11_linear_182_1822)"/>
<path d="M4.79285 9.6522L4.33125 6.28186C4.24539 5.622 3.50461 5.09413 2.5814 5.03321L0.015625 4.84033C0.015625 4.84033 2.15193 4.92156 2.60282 4.92156C3.05372 4.92156 4.37427 5.10427 4.49226 6.27172C4.61043 7.43915 4.79285 9.6522 4.79285 9.6522Z" fill="url(#paint12_linear_182_1822)"/>
<path d="M4.82422 9.6522L5.28601 6.28186C5.37187 5.622 6.11265 5.09413 7.03586 5.03321L9.60164 4.84033C9.60164 4.84033 7.46533 4.92156 7.01444 4.92156C6.56355 4.92156 5.24299 5.10427 5.125 6.27172C4.99612 7.43915 4.82422 9.6522 4.82422 9.6522Z" fill="url(#paint13_linear_182_1822)"/>
<defs>
<radialGradient id="paint0_radial_182_1822" cx="0" cy="0" r="1" gradientUnits="userSpaceOnUse" gradientTransform="translate(15.1806 13.28) rotate(-136.601) scale(3.40141 3.3961)">
<stop stop-color="#FFBC47"/>
<stop offset="0.2588" stop-color="#FEC14D" stop-opacity="0.7412"/>
<stop offset="0.6207" stop-color="#FDCD60" stop-opacity="0.3793"/>
<stop offset="1" stop-color="#FBE07A" stop-opacity="0"/>
</radialGradient>
<linearGradient id="paint1_linear_182_1822" x1="14.6684" y1="11.238" x2="17.2499" y2="22.7649" gradientUnits="userSpaceOnUse">
<stop stop-color="#FCCE38"/>
<stop offset="0.2151" stop-color="#FCD44F"/>
<stop offset="0.5049" stop-color="#FBDB67"/>
<stop offset="0.774" stop-color="#FBDF75"/>
<stop offset="1" stop-color="#FBE07A"/>
</linearGradient>
<linearGradient id="paint2_linear_182_1822" x1="16.5434" y1="9.49159" x2="11.6444" y2="9.99704" gradientUnits="userSpaceOnUse">
<stop stop-color="#FCCE38"/>
<stop offset="0.2151" stop-color="#FCD44F"/>
<stop offset="0.5049" stop-color="#FBDB67"/>
<stop offset="0.774" stop-color="#FBDF75"/>
<stop offset="1" stop-color="#FBE07A"/>
</linearGradient>
<linearGradient id="paint3_linear_182_1822" x1="11.2189" y1="19.0708" x2="14.3311" y2="6.81745" gradientUnits="userSpaceOnUse">
<stop stop-color="#FCCE38"/>
<stop offset="0.3638" stop-color="#FCCE38"/>
<stop offset="1" stop-color="#C86F34"/>
</linearGradient>
<linearGradient id="paint4_linear_182_1822" x1="18.6495" y1="18.0534" x2="12.8832" y2="14.1989" gradientUnits="userSpaceOnUse">
<stop stop-color="#FCCE38"/>
<stop offset="0.2151" stop-color="#FCD44F"/>
<stop offset="0.5049" stop-color="#FBDB67"/>
<stop offset="0.774" stop-color="#FBDF75"/>
<stop offset="1" stop-color="#FBE07A"/>
</linearGradient>
<linearGradient id="paint5_linear_182_1822" x1="18.5739" y1="7.60378" x2="16.9518" y2="16.8113" gradientUnits="userSpaceOnUse">
<stop stop-color="#FCCE38"/>
<stop offset="0.00850916" stop-color="#FCCD38"/>
<stop offset="0.3748" stop-color="#FBB53A"/>
<stop offset="0.7145" stop-color="#FBA73B"/>
<stop offset="1" stop-color="#FBA23B"/>
</linearGradient>
<linearGradient id="paint6_linear_182_1822" x1="12.9665" y1="10.9227" x2="15.4133" y2="16.4821" gradientUnits="userSpaceOnUse">
<stop stop-color="#FCCE38"/>
<stop offset="0.00850916" stop-color="#FCCD38"/>
<stop offset="0.3748" stop-color="#FBB53A"/>
<stop offset="0.7145" stop-color="#FBA73B"/>
<stop offset="1" stop-color="#FBA23B"/>
</linearGradient>
<radialGradient id="paint7_radial_182_1822" cx="0" cy="0" r="1" gradientUnits="userSpaceOnUse" gradientTransform="translate(4.81174 4.82451) rotate(43.4002) scale(2.64297 2.63885)">
<stop stop-color="#FFBC47"/>
<stop offset="0.2588" stop-color="#FEC14D" stop-opacity="0.7412"/>
<stop offset="0.6207" stop-color="#FDCD60" stop-opacity="0.3793"/>
<stop offset="1" stop-color="#FBE07A" stop-opacity="0"/>
</radialGradient>
<linearGradient id="paint8_linear_182_1822" x1="5.10591" y1="6.0173" x2="3.60067" y2="-0.703609" gradientUnits="userSpaceOnUse">
<stop stop-color="#FCCE38"/>
<stop offset="0.2151" stop-color="#FCD44F"/>
<stop offset="0.5049" stop-color="#FBDB67"/>
<stop offset="0.774" stop-color="#FBDF75"/>
<stop offset="1" stop-color="#FBE07A"/>
</linearGradient>
<linearGradient id="paint9_linear_182_1822" x1="3.68935" y1="7.01306" x2="7.51806" y2="6.61802" gradientUnits="userSpaceOnUse">
<stop stop-color="#FCCE38"/>
<stop offset="0.2151" stop-color="#FCD44F"/>
<stop offset="0.5049" stop-color="#FBDB67"/>
<stop offset="0.774" stop-color="#FBDF75"/>
<stop offset="1" stop-color="#FBE07A"/>
</linearGradient>
<linearGradient id="paint10_linear_182_1822" x1="1.91765" y1="8.06072" x2="3.69063" y2="1.07988" gradientUnits="userSpaceOnUse">
<stop stop-color="#FCCE38"/>
<stop offset="0.3638" stop-color="#FCCE38"/>
<stop offset="1" stop-color="#C86F34"/>
</linearGradient>
<linearGradient id="paint11_linear_182_1822" x1="2.00306" y1="1.86747" x2="6.21723" y2="4.68457" gradientUnits="userSpaceOnUse">
<stop stop-color="#FCCE38"/>
<stop offset="0.2151" stop-color="#FCD44F"/>
<stop offset="0.5049" stop-color="#FBDB67"/>
<stop offset="0.774" stop-color="#FBDF75"/>
<stop offset="1" stop-color="#FBE07A"/>
</linearGradient>
<linearGradient id="paint12_linear_182_1822" x1="2.24398" y1="8.05535" x2="3.17273" y2="2.78363" gradientUnits="userSpaceOnUse">
<stop stop-color="#FCCE38"/>
<stop offset="0.00850916" stop-color="#FCCD38"/>
<stop offset="0.3748" stop-color="#FBB53A"/>
<stop offset="0.7145" stop-color="#FBA73B"/>
<stop offset="1" stop-color="#FBA23B"/>
</linearGradient>
<linearGradient id="paint13_linear_182_1822" x1="6.63231" y1="6.06672" x2="5.25436" y2="2.93589" gradientUnits="userSpaceOnUse">
<stop stop-color="#FCCE38"/>
<stop offset="0.00850916" stop-color="#FCCD38"/>
<stop offset="0.3748" stop-color="#FBB53A"/>
<stop offset="0.7145" stop-color="#FBA73B"/>
<stop offset="1" stop-color="#FBA23B"/>
</linearGradient>
</defs>
</svg>
