<svg width="140" height="19" viewBox="0 0 140 19" fill="none" xmlns="http://www.w3.org/2000/svg">
<g clip-path="url(#clip0_182_1769)">
<path d="M0.0507812 0.272217H6.4052C7.32157 0.946564 8.28989 1.85433 9.31005 2.99553C10.3302 4.11943 11.2812 5.34708 12.1631 6.67846C12.3014 6.10789 12.5348 5.53729 12.8633 4.96669C13.1918 4.39609 13.5809 3.84278 14.0304 3.30677C14.4973 2.75346 15.0074 2.22609 15.5607 1.72465C16.1313 1.20592 16.7192 0.72178 17.3244 0.272217H23.6788V18.4276H17.3244V3.20302C16.3388 3.94653 15.6039 4.87159 15.1198 5.97818C14.6529 7.08483 14.4195 8.22603 14.4195 9.40181C14.4195 9.79951 14.4454 10.2058 14.4973 10.6208C14.5492 11.0185 14.6356 11.4075 14.7566 11.7879C14.9123 12.2894 15.0333 12.7735 15.1198 13.2404C15.2235 13.7072 15.2754 14.1568 15.2754 14.589C15.2754 15.177 15.1803 15.7129 14.9901 16.1971C14.8172 16.6813 14.5232 17.1049 14.1083 17.468C13.7106 17.8138 13.1832 18.0818 12.5262 18.272C11.8864 18.4622 11.0996 18.5573 10.166 18.5573C9.85469 18.5573 9.52619 18.5486 9.18033 18.5313C8.85183 18.5141 8.49736 18.4795 8.11696 18.4276C8.80862 17.8743 9.32734 17.1049 9.67314 16.1193C10.0362 15.1337 10.2178 14.0444 10.2178 12.8513C10.2178 12.0905 10.14 11.3038 9.9844 10.4911C9.82877 9.67842 9.59533 8.87441 9.28413 8.07902C8.97287 7.26638 8.57517 6.47961 8.09104 5.71882C7.62421 4.95804 7.0622 4.24912 6.4052 3.59206V18.4276H0.0507812V0.272217Z" fill="#0073F0"/>
<path d="M26.918 0.272217H33.2724V18.4276H26.918V0.272217Z" fill="#0073F0"/>
<path d="M36.4961 0.272217H47.8821C48.9022 0.272217 49.7927 0.427835 50.5535 0.739072C51.3143 1.03302 51.9455 1.42206 52.4469 1.90621C52.9656 2.39035 53.346 2.9523 53.5881 3.59206C53.8475 4.21454 53.9771 4.84565 53.9771 5.48541C53.9771 5.98686 53.8994 6.47961 53.7437 6.9638C53.6054 7.44793 53.3806 7.90615 53.0694 8.33838C52.7754 8.77067 52.4037 9.15975 51.9541 9.50555C51.5046 9.83405 50.9772 10.1021 50.372 10.3096L55.8964 18.4276H47.9081L43.4989 10.6986H42.8505V18.4276H36.4961V0.272217ZM42.8505 9.42773H46.0666C46.5853 9.41043 46.9743 9.19429 47.2337 8.77929C47.4931 8.36436 47.6227 7.90614 47.6227 7.40472C47.6227 6.90329 47.4931 6.45369 47.2337 6.056C46.9743 5.65832 46.568 5.45948 46.0147 5.45948H42.8505V9.42773Z" fill="#0073F0"/>
<path d="M72.6975 0.0128174L80.7115 18.4276H73.9163L66.8614 2.1396L66.706 1.67274C65.4611 3.41912 64.5882 4.98394 64.0863 6.36722C63.5849 7.75048 63.3342 8.94357 63.3342 9.94643C63.3342 11.053 63.5764 11.9003 64.0607 12.4882C64.5621 13.076 65.1758 13.37 65.9023 13.37C66.3345 13.37 66.7837 13.2663 67.2505 13.0588C67.7348 12.834 68.1755 12.5314 68.5737 12.151C68.9883 11.7706 69.3172 11.3211 69.5588 10.8023C69.801 10.2663 69.9048 9.69568 69.8702 9.09052C70.0778 9.54011 70.1816 10.0934 70.1816 10.7504C70.1816 11.5631 70.0262 12.445 69.7148 13.3959C69.4204 14.3469 68.9883 15.2374 68.4177 16.0674C67.8647 16.8974 67.1813 17.589 66.3691 18.1423C65.5563 18.6956 64.6398 18.9723 63.6195 18.9723C62.6689 18.9723 61.8647 18.8426 61.2073 18.5832C60.5506 18.3411 60.0231 18.0126 59.6255 17.5976C59.2279 17.1826 58.9336 16.7158 58.7436 16.1971C58.5706 15.6784 58.4844 15.1423 58.4844 14.589C58.4844 13.7764 58.6483 12.9032 58.9772 11.9694C59.3056 11.0185 59.7293 10.0675 60.2477 9.11644C60.7666 8.14818 61.3287 7.19715 61.9339 6.26349C62.5561 5.32976 63.1442 4.45657 63.6972 3.6439C64.2683 2.83123 64.7697 2.11365 65.2019 1.49119C65.6511 0.868718 65.9539 0.375926 66.1093 0.0128174H72.6975Z" fill="#0073F0"/>
<path d="M82.9297 0.272217H89.2842V5.20011L94.5753 0.272217H102.486L94.3677 8.00126L102.848 18.4276H94.8084L89.9585 12.2029L89.2842 12.8513V18.4276H82.9297V0.272217Z" fill="#0073F0"/>
<path d="M121.09 13.2404V18.4276H104.828V0.272217H111.182V13.2404H121.09Z" fill="#0073F0"/>
<path d="M139.955 13.2404V18.4276H123.355V0.272217H139.799V5.45948H129.71V8.70154H137.906V10.2577H129.71V13.2404H139.955Z" fill="#0073F0"/>
</g>
<defs>
<clipPath id="clip0_182_1769">
<rect width="139.976" height="19" fill="white"/>
</clipPath>
</defs>
</svg>