<svg width="2468" height="335" viewBox="0 0 2468 335" fill="none" xmlns="http://www.w3.org/2000/svg">
<path d="M0.93457 4.7988H112.973C129.13 16.6886 146.203 32.694 164.19 52.8151C182.177 72.6313 198.944 94.2767 214.493 117.751C216.932 107.691 221.047 97.6303 226.84 87.5697C232.632 77.5092 239.492 67.7535 247.418 58.3027C255.649 48.547 264.643 39.2486 274.399 30.4075C284.459 21.2615 294.825 12.7253 305.495 4.7988H417.533V324.907H305.495V56.4735C288.118 69.5827 275.161 85.893 266.625 105.404C258.393 124.916 254.278 145.037 254.278 165.768C254.278 172.78 254.735 179.944 255.649 187.261C256.564 194.273 258.088 201.132 260.222 207.839C262.966 216.68 265.1 225.216 266.625 233.448C268.454 241.679 269.368 249.606 269.368 257.227C269.368 267.593 267.692 277.043 264.338 285.58C261.289 294.116 256.107 301.585 248.79 307.987C241.778 314.085 232.48 318.81 220.895 322.163C209.615 325.517 195.743 327.194 179.281 327.194C173.793 327.194 168.001 327.041 161.903 326.736C156.111 326.432 149.861 325.822 143.154 324.907C155.349 315.152 164.495 301.585 170.592 284.208C176.994 266.83 180.195 247.624 180.195 226.588C180.195 213.174 178.823 199.303 176.08 184.974C173.336 170.645 169.22 156.469 163.733 142.445C158.245 128.117 151.233 114.245 142.697 100.831C134.466 87.4173 124.557 74.9178 112.973 63.3329V324.907H0.93457V4.7988Z" fill="#0073F0"/>
<path d="M474.541 4.7988H586.579V324.907H474.541V4.7988Z" fill="#0073F0"/>
<path d="M643.581 4.7988H844.334C862.321 4.7988 878.022 7.54259 891.436 13.0302C904.85 18.2129 915.978 25.0723 924.819 33.6086C933.965 42.1448 940.672 52.0529 944.94 63.3329C949.513 74.3081 951.799 85.4357 951.799 96.7157C951.799 105.557 950.428 114.245 947.684 122.782C945.245 131.318 941.282 139.397 935.794 147.018C930.611 154.64 924.057 161.5 916.13 167.597C908.204 173.389 898.905 178.115 888.235 181.773L985.639 324.907H844.792L767.051 188.633H755.619V324.907H643.581V4.7988ZM755.619 166.225H812.324C821.47 165.92 828.329 162.109 832.902 154.792C837.475 147.476 839.761 139.397 839.761 130.556C839.761 121.715 837.475 113.788 832.902 106.776C828.329 99.7643 821.165 96.2584 811.409 96.2584H755.619V166.225Z" fill="#0073F0"/>
<path d="M1281.8 0.22583L1423.1 324.907H1303.29L1178.9 37.7243L1176.16 29.4929C1154.21 60.2843 1138.82 87.8746 1129.97 112.264C1121.13 136.653 1116.71 157.689 1116.71 175.371C1116.71 194.882 1120.98 209.821 1129.52 220.186C1138.36 230.551 1149.18 235.734 1161.99 235.734C1169.61 235.734 1177.53 233.905 1185.76 230.247C1194.3 226.283 1202.07 220.948 1209.09 214.241C1216.4 207.534 1222.2 199.608 1226.46 190.462C1230.73 181.011 1232.56 170.95 1231.95 160.28C1235.61 168.207 1237.44 177.962 1237.44 189.547C1237.44 203.876 1234.7 219.424 1229.21 236.191C1224.02 252.959 1216.4 268.66 1206.34 283.293C1196.59 297.927 1184.54 310.121 1170.22 319.877C1155.89 329.633 1139.73 334.511 1121.74 334.511C1104.98 334.511 1090.8 332.224 1079.21 327.651C1067.63 323.383 1058.33 317.59 1051.32 310.274C1044.31 302.957 1039.12 294.726 1035.77 285.58C1032.72 276.434 1031.2 266.983 1031.2 257.227C1031.2 242.899 1034.09 227.503 1039.89 211.04C1045.68 194.273 1053.15 177.505 1062.29 160.737C1071.44 143.665 1081.35 126.897 1092.02 110.435C1102.99 93.9719 1113.36 78.5762 1123.11 64.2475C1133.18 49.9189 1142.02 37.2669 1149.64 26.2918C1157.56 15.3167 1162.9 6.62801 1165.64 0.22583H1281.8Z" fill="#0073F0"/>
<path d="M1462.18 4.7988H1574.22V91.6854L1667.51 4.7988H1806.98L1663.85 141.074L1813.38 324.907H1671.62L1586.11 215.156L1574.22 226.588V324.907H1462.18V4.7988Z" fill="#0073F0"/>
<path d="M2134.98 233.448V324.907H1848.26V4.7988H1960.29V233.448H2134.98Z" fill="#0073F0"/>
<path d="M2467.61 233.448V324.907H2174.94V4.7988H2464.87V96.2584H2286.98V153.421H2431.48V180.858H2286.98V233.448H2467.61Z" fill="#0073F0"/>
</svg>
