<svg width="31" height="50" viewBox="0 0 31 50" fill="none" xmlns="http://www.w3.org/2000/svg">
<path d="M20.8109 18.1675C18.1833 20.652 13.9229 20.652 11.2861 18.1675C13.9138 20.652 13.9138 24.6809 11.2861 27.174C13.9138 24.6895 18.1742 24.6895 20.8109 27.174C18.1742 24.6895 18.1742 20.652 20.8109 18.1675Z" fill="#FCCE38"/>
<path d="M20.8104 27.1741C18.183 29.6587 13.9224 29.6587 11.2949 27.1741C8.66733 24.6894 8.66733 20.6607 11.2949 18.1761C13.9224 15.6916 18.183 15.6916 20.8104 18.1761C23.4379 20.6521 23.4379 24.6808 20.8104 27.1741Z" fill="url(#paint0_radial_72_620)"/>
<path d="M21.5954 23.3269L27.9178 22.7056C27.9634 22.697 27.9634 22.6367 27.9178 22.6367L21.5954 22.0156C19.2963 21.7912 17.4808 20.0659 17.2527 17.9005L16.085 6.74582C16.0759 6.70269 16.0118 6.70269 16.0118 6.74582L14.8716 17.8832C14.6525 20.0659 12.8371 21.7912 10.5289 22.0156L4.16995 22.6367C4.12434 22.6453 4.12434 22.7056 4.16995 22.7056L10.5289 23.3269C12.828 23.5511 14.6434 25.2765 14.8716 27.4591L16.0118 38.5965C16.0118 38.6397 16.085 38.6397 16.085 38.5965L17.2527 27.4419C17.4899 25.2679 19.3054 23.5511 21.5954 23.3269Z" fill="url(#paint1_linear_72_620)"/>
<path d="M15.793 22.9987C14.4427 21.3854 4.16995 22.6364 4.16995 22.6364C4.12434 22.645 4.12434 22.7054 4.16995 22.7054L10.5288 23.3265C12.828 23.5508 14.6434 25.2761 14.8716 27.4587L15.9389 37.8974L16.0118 37.9319C16.0118 37.9319 17.2345 24.7154 15.793 22.9987Z" fill="url(#paint2_linear_72_620)"/>
<path d="M21.5953 22.0148C19.2963 21.7905 17.4807 20.0652 17.2527 17.8998L16.4954 10.6963C16.4954 10.6963 16.2582 20.4101 18.5208 21.8164C20.2999 22.9207 19.7706 21.8595 27.9177 22.6359L21.5953 22.0148Z" fill="url(#paint3_linear_72_620)"/>
<path d="M15.264 18.9785C15.7567 13.2674 15.9756 10.4896 16.3224 8.9712L16.0851 6.73682C16.076 6.69368 16.0122 6.69368 16.0122 6.73682L14.8717 17.8742C14.6527 20.0568 12.8372 21.7823 10.529 22.0065L6.32324 22.4206C11.2134 22.9555 14.9813 22.2654 15.264 18.9785Z" fill="url(#paint4_linear_72_620)"/>
<path d="M16.011 38.5963L14.8705 27.4589C14.6515 25.2763 12.836 23.5508 10.5279 23.3266L4.16895 22.7054C4.16895 22.7054 9.46043 22.9729 10.5735 22.9729C11.6865 22.9729 14.9526 23.594 15.2537 27.4416C15.5547 31.2893 16.011 38.5963 16.011 38.5963Z" fill="url(#paint5_linear_72_620)"/>
<path d="M16.085 38.5963L17.2252 27.4589C17.4443 25.2763 19.2597 23.5508 21.5679 23.3266L27.9269 22.7054C27.9269 22.7054 22.6354 22.9729 21.5224 22.9729C20.4093 22.9729 17.1432 23.594 16.8421 27.4416C16.5411 31.2893 16.085 38.5963 16.085 38.5963Z" fill="url(#paint6_linear_72_620)"/>
<path opacity="0.5" d="M8.75465 5.84225C7.32682 7.19242 5.01867 7.19242 3.60156 5.84225C5.0294 7.19242 5.0294 9.37501 3.60156 10.715C5.0294 9.36486 7.33754 9.36486 8.75465 10.715C7.33754 9.37501 7.33754 7.19242 8.75465 5.84225Z" fill="#FCCE38"/>
<path d="M6.1785 11.5876C8.11139 11.5876 9.67831 10.1059 9.67831 8.27814C9.67831 6.4504 8.11139 4.96872 6.1785 4.96872C4.24563 4.96872 2.67871 6.4504 2.67871 8.27814C2.67871 10.1059 4.24563 11.5876 6.1785 11.5876Z" fill="url(#paint7_radial_72_620)"/>
<path d="M3.30119 7.94363L0.0161054 8.26847C-0.00536847 8.26847 -0.00536847 8.29894 0.0161054 8.30908L3.30119 8.63394C4.49285 8.74559 5.43757 9.6491 5.55567 10.7759L6.16759 16.5623C6.16759 16.5827 6.19981 16.5827 6.21054 16.5623L6.801 10.7759C6.91908 9.6491 7.86382 8.74559 9.05547 8.63394L12.362 8.30908C12.3835 8.30908 12.3835 8.27863 12.362 8.26847L9.05547 7.94363C7.86382 7.8218 6.91908 6.92847 6.801 5.80163L6.21054 0.0152293C6.21054 -0.00507643 6.17833 -0.00507643 6.16759 0.0152293L5.55567 5.81179C5.42684 6.92847 4.49285 7.8218 3.30119 7.94363Z" fill="url(#paint8_linear_72_620)"/>
<path d="M6.31782 8.11643C7.01562 8.94886 12.3512 8.29917 12.3512 8.29917C12.3727 8.29917 12.3727 8.26872 12.3512 8.25856L9.04464 7.9337C7.853 7.81188 6.90827 6.91856 6.79017 5.79172L6.23193 0.37077L6.19972 0.350464C6.19972 0.350464 5.56633 7.21295 6.31782 8.11643Z" fill="url(#paint9_linear_72_620)"/>
<path d="M3.30071 8.62367C4.49237 8.73534 5.43711 9.63883 5.55519 10.7657L5.95241 14.5015C5.95241 14.5015 6.08123 9.45609 4.90032 8.7252C3.97705 8.15671 4.24545 8.70489 0.015625 8.29883L3.30071 8.62367Z" fill="url(#paint10_linear_72_620)"/>
<path d="M6.58658 10.1969C6.32893 13.1611 6.22156 14.6028 6.03906 15.3946L6.15716 16.5518C6.15716 16.572 6.18936 16.572 6.20011 16.5518L6.79055 10.7654C6.90865 9.63857 7.85339 8.73508 9.04503 8.6234L11.2244 8.41022C8.69075 8.12598 6.73688 8.49143 6.58658 10.1969Z" fill="url(#paint11_linear_72_620)"/>
<path d="M6.19922 0.00521851L6.78967 5.79162C6.90776 6.91845 7.85248 7.82194 9.04414 7.93362L12.3507 8.25845C12.3507 8.25845 9.60238 8.11633 9.02266 8.11633C8.44295 8.11633 6.74672 7.79149 6.58569 5.80178C6.42467 3.80191 6.19922 0.00521851 6.19922 0.00521851Z" fill="url(#paint12_linear_72_620)"/>
<path d="M6.15734 0.00534058L5.56689 5.79174C5.4488 6.91858 4.50406 7.82207 3.31242 7.93374L0.00585938 8.25858C0.00585938 8.25858 2.75416 8.11645 3.33388 8.11645C3.91361 8.11645 5.60982 7.79162 5.77087 5.8019C5.93189 3.80203 6.15734 0.00534058 6.15734 0.00534058Z" fill="url(#paint13_linear_72_620)"/>
<path opacity="0.5" d="M27.6498 11.9261C26.5333 12.9819 24.719 12.9819 23.5918 11.9261C24.7083 12.9819 24.7083 14.6975 23.5918 15.7634C24.7083 14.7076 26.5226 14.7076 27.6498 15.7634C26.5333 14.6975 26.5333 12.9819 27.6498 11.9261Z" fill="#FCCE38"/>
<path d="M25.8313 16.2934C27.3313 16.2934 28.5474 15.1435 28.5474 13.725C28.5474 12.3065 27.3313 11.1566 25.8313 11.1566C24.3311 11.1566 23.1152 12.3065 23.1152 13.725C23.1152 15.1435 24.3311 16.2934 25.8313 16.2934Z" fill="url(#paint14_radial_72_620)"/>
<path d="M28.0753 13.9178L30.6304 13.735C30.6518 13.735 30.6518 13.7147 30.6304 13.7147L28.0753 13.532C27.1521 13.4609 26.4113 12.9432 26.3253 12.2834L25.853 8.90288C25.853 8.89272 25.8208 8.89272 25.8208 8.90288L25.3592 12.2732C25.2732 12.9331 24.5326 13.4609 23.6092 13.5219L21.0434 13.7147C21.022 13.7147 21.022 13.735 21.0434 13.735L23.6092 13.9279C24.5433 13.999 25.2732 14.5167 25.3592 15.1766L25.8208 18.5469C25.8208 18.5571 25.853 18.5571 25.853 18.5469L26.3253 15.1664C26.4113 14.5066 27.1521 13.9888 28.0753 13.9178Z" fill="url(#paint15_linear_72_620)"/>
<path d="M25.735 13.8163C25.1873 13.3291 21.0434 13.7047 21.0434 13.7047C21.022 13.7047 21.022 13.725 21.0434 13.725L23.6092 13.9178C24.5433 13.9889 25.2732 14.5066 25.3592 15.1665L25.7885 18.3236L25.8208 18.3338C25.8208 18.3439 26.3146 14.3442 25.735 13.8163Z" fill="url(#paint16_linear_72_620)"/>
<path d="M23.598 13.9183C24.5212 13.9894 25.262 14.5071 25.3479 15.167L25.6485 17.3495C25.6485 17.3495 25.745 14.4056 24.8325 13.9792C24.1134 13.6442 24.3281 13.9691 21.043 13.7356L23.598 13.9183Z" fill="url(#paint17_linear_72_620)"/>
<path d="M25.5193 12.6082C25.7124 10.8824 25.8092 10.0399 25.9487 9.58305L25.852 8.90288C25.852 8.89272 25.8199 8.89272 25.8199 8.90288L25.3583 12.2732C25.2724 12.9331 24.5316 13.4609 23.6082 13.5219L21.9121 13.6437C23.8767 13.8061 25.4011 13.6031 25.5193 12.6082Z" fill="url(#paint18_linear_72_620)"/>
<path d="M25.8202 18.5474L25.3586 15.1771C25.2727 14.5172 24.532 13.9894 23.6087 13.9284L21.043 13.7356C21.043 13.7356 23.1793 13.8168 23.6302 13.8168C24.0811 13.8168 25.4016 13.9995 25.5196 15.167C25.6378 16.3344 25.8202 18.5474 25.8202 18.5474Z" fill="url(#paint19_linear_72_620)"/>
<path d="M25.8525 18.5474L26.3143 15.1771C26.4002 14.5172 27.141 13.9894 28.0642 13.9284L30.63 13.7356C30.63 13.7356 28.4937 13.8168 28.0428 13.8168C27.5919 13.8168 26.2713 13.9995 26.1533 15.167C26.0244 16.3344 25.8525 18.5474 25.8525 18.5474Z" fill="url(#paint20_linear_72_620)"/>
<path opacity="0.5" d="M24.9421 41.3111C23.9545 42.245 22.3656 42.245 21.3779 41.3111C22.3656 42.245 22.3656 43.7474 21.3779 44.6815C22.3656 43.7474 23.9545 43.7474 24.9421 44.6815C23.9545 43.7474 23.9545 42.245 24.9421 41.3111Z" fill="#FCCE38"/>
<path d="M23.1528 45.4396C24.4869 45.4396 25.5683 44.417 25.5683 43.1555C25.5683 41.894 24.4869 40.8714 23.1528 40.8714C21.8188 40.8714 20.7373 41.894 20.7373 43.1555C20.7373 44.417 21.8188 45.4396 23.1528 45.4396Z" fill="url(#paint21_radial_72_620)"/>
<path d="M21.0948 43.1712L18.8296 43.3945C18.8081 43.3945 18.8081 43.4148 18.8296 43.4249L21.0948 43.6482C21.9214 43.7294 22.5656 44.3487 22.6514 45.1304L23.0701 49.1302C23.0701 49.1505 23.0916 49.1505 23.1023 49.1302L23.5103 45.1304C23.5854 44.3487 24.2403 43.7294 25.067 43.6482L27.343 43.4249C27.3644 43.4249 27.3644 43.4046 27.343 43.3945L25.067 43.1712C24.2403 43.0898 23.5854 42.4707 23.5103 41.6891L23.1023 37.6892C23.1023 37.6689 23.0809 37.6689 23.0701 37.6892L22.6514 41.6891C22.5656 42.4707 21.9107 43.0898 21.0948 43.1712Z" fill="url(#paint22_linear_72_620)"/>
<path d="M23.2482 43.0342C23.7313 43.6128 27.4136 43.166 27.4136 43.166C27.435 43.166 27.435 43.1457 27.4136 43.1356L25.1377 42.9123C24.311 42.8311 23.6561 42.2118 23.581 41.4301L23.1945 37.6842L23.173 37.674C23.1623 37.6842 22.7329 42.425 23.2482 43.0342Z" fill="url(#paint23_linear_72_620)"/>
<path d="M21.0953 43.6381C21.9219 43.7193 22.5661 44.3386 22.6519 45.1203L22.9203 47.6987C22.9203 47.6987 23.0062 44.2167 22.1903 43.7092C21.5569 43.3134 21.7394 43.6889 18.8193 43.4148L21.0953 43.6381Z" fill="url(#paint24_linear_72_620)"/>
<path d="M23.3601 44.7243C23.1884 46.7749 23.1025 47.7698 22.9844 48.318L23.0703 49.1199C23.0703 49.1402 23.0917 49.1402 23.1025 49.1199L23.5104 45.1203C23.5856 44.3386 24.2405 43.7193 25.0671 43.6381L26.5808 43.4859C24.8202 43.303 23.4675 43.5468 23.3601 44.7243Z" fill="url(#paint25_linear_72_620)"/>
<path d="M23.0918 37.6889L23.4998 41.6885C23.5749 42.4702 24.2298 43.0895 25.0564 43.1707L27.3324 43.394C27.3324 43.394 25.4322 43.3027 25.0349 43.3027C24.6377 43.3027 23.4675 43.0794 23.3602 41.6987C23.2528 40.308 23.0918 37.6889 23.0918 37.6889Z" fill="url(#paint26_linear_72_620)"/>
<path d="M23.0706 37.6889L22.6627 41.6886C22.5875 42.4703 21.9327 43.0896 21.106 43.1708L18.8301 43.3941C18.8301 43.3941 20.7303 43.3027 21.1275 43.3027C21.5247 43.3027 22.6949 43.0794 22.8023 41.6987C22.9096 40.3081 23.0706 37.6889 23.0706 37.6889Z" fill="url(#paint27_linear_72_620)"/>
<defs>
<radialGradient id="paint0_radial_72_620" cx="0" cy="0" r="1" gradientUnits="userSpaceOnUse" gradientTransform="translate(16.0503 22.6665) rotate(43.3994) scale(6.55032 6.54027)">
<stop stop-color="#FFBC47"/>
<stop offset="0.2588" stop-color="#FEC14D" stop-opacity="0.7412"/>
<stop offset="0.6207" stop-color="#FDCD60" stop-opacity="0.3793"/>
<stop offset="1" stop-color="#FBE07A" stop-opacity="0"/>
</radialGradient>
<linearGradient id="paint1_linear_72_620" x1="17.0317" y1="26.6036" x2="12.0602" y2="4.4054" gradientUnits="userSpaceOnUse">
<stop stop-color="#FCCE38"/>
<stop offset="0.2151" stop-color="#FCD44F"/>
<stop offset="0.5049" stop-color="#FBDB67"/>
<stop offset="0.774" stop-color="#FBDF75"/>
<stop offset="1" stop-color="#FBE07A"/>
</linearGradient>
<linearGradient id="paint2_linear_72_620" x1="13.4187" y1="29.9668" x2="22.853" y2="28.9934" gradientUnits="userSpaceOnUse">
<stop stop-color="#FCCE38"/>
<stop offset="0.2151" stop-color="#FCD44F"/>
<stop offset="0.5049" stop-color="#FBDB67"/>
<stop offset="0.774" stop-color="#FBDF75"/>
<stop offset="1" stop-color="#FBE07A"/>
</linearGradient>
<linearGradient id="paint3_linear_72_620" x1="23.6734" y1="11.5186" x2="17.6803" y2="35.1154" gradientUnits="userSpaceOnUse">
<stop stop-color="#FCCE38"/>
<stop offset="0.3638" stop-color="#FCCE38"/>
<stop offset="1" stop-color="#C86F34"/>
</linearGradient>
<linearGradient id="paint4_linear_72_620" x1="9.36569" y1="13.4775" x2="20.4701" y2="20.9005" gradientUnits="userSpaceOnUse">
<stop stop-color="#FCCE38"/>
<stop offset="0.2151" stop-color="#FCD44F"/>
<stop offset="0.5049" stop-color="#FBDB67"/>
<stop offset="0.774" stop-color="#FBDF75"/>
<stop offset="1" stop-color="#FBE07A"/>
</linearGradient>
<linearGradient id="paint5_linear_72_620" x1="9.50843" y1="33.6022" x2="12.6321" y2="15.8708" gradientUnits="userSpaceOnUse">
<stop stop-color="#FCCE38"/>
<stop offset="0.00850916" stop-color="#FCCD38"/>
<stop offset="0.3748" stop-color="#FBB53A"/>
<stop offset="0.7145" stop-color="#FBA73B"/>
<stop offset="1" stop-color="#FBA23B"/>
</linearGradient>
<linearGradient id="paint6_linear_72_620" x1="20.3138" y1="27.211" x2="15.6019" y2="16.505" gradientUnits="userSpaceOnUse">
<stop stop-color="#FCCE38"/>
<stop offset="0.00850916" stop-color="#FCCD38"/>
<stop offset="0.3748" stop-color="#FBB53A"/>
<stop offset="0.7145" stop-color="#FBA73B"/>
<stop offset="1" stop-color="#FBA23B"/>
</linearGradient>
<radialGradient id="paint7_radial_72_620" cx="0" cy="0" r="1" gradientUnits="userSpaceOnUse" gradientTransform="translate(6.17959 8.27995) rotate(-136.601) scale(3.40141 3.3961)">
<stop stop-color="#FFBC47"/>
<stop offset="0.2588" stop-color="#FEC14D" stop-opacity="0.7412"/>
<stop offset="0.6207" stop-color="#FDCD60" stop-opacity="0.3793"/>
<stop offset="1" stop-color="#FBE07A" stop-opacity="0"/>
</radialGradient>
<linearGradient id="paint8_linear_72_620" x1="5.66835" y1="6.23797" x2="8.24992" y2="17.7649" gradientUnits="userSpaceOnUse">
<stop stop-color="#FCCE38"/>
<stop offset="0.2151" stop-color="#FCD44F"/>
<stop offset="0.5049" stop-color="#FBDB67"/>
<stop offset="0.774" stop-color="#FBDF75"/>
<stop offset="1" stop-color="#FBE07A"/>
</linearGradient>
<linearGradient id="paint9_linear_72_620" x1="7.5444" y1="4.49159" x2="2.6454" y2="4.99704" gradientUnits="userSpaceOnUse">
<stop stop-color="#FCCE38"/>
<stop offset="0.2151" stop-color="#FCD44F"/>
<stop offset="0.5049" stop-color="#FBDB67"/>
<stop offset="0.774" stop-color="#FBDF75"/>
<stop offset="1" stop-color="#FBE07A"/>
</linearGradient>
<linearGradient id="paint10_linear_72_620" x1="2.21894" y1="14.0708" x2="5.33107" y2="1.81745" gradientUnits="userSpaceOnUse">
<stop stop-color="#FCCE38"/>
<stop offset="0.3638" stop-color="#FCCE38"/>
<stop offset="1" stop-color="#C86F34"/>
</linearGradient>
<linearGradient id="paint11_linear_72_620" x1="9.64953" y1="13.0534" x2="3.88325" y2="9.1989" gradientUnits="userSpaceOnUse">
<stop stop-color="#FCCE38"/>
<stop offset="0.2151" stop-color="#FCD44F"/>
<stop offset="0.5049" stop-color="#FBDB67"/>
<stop offset="0.774" stop-color="#FBDF75"/>
<stop offset="1" stop-color="#FBE07A"/>
</linearGradient>
<linearGradient id="paint12_linear_72_620" x1="9.5739" y1="2.60375" x2="7.95184" y2="11.8112" gradientUnits="userSpaceOnUse">
<stop stop-color="#FCCE38"/>
<stop offset="0.00850916" stop-color="#FCCD38"/>
<stop offset="0.3748" stop-color="#FBB53A"/>
<stop offset="0.7145" stop-color="#FBA73B"/>
<stop offset="1" stop-color="#FBA23B"/>
</linearGradient>
<linearGradient id="paint13_linear_72_620" x1="3.96451" y1="5.92267" x2="6.41131" y2="11.4821" gradientUnits="userSpaceOnUse">
<stop stop-color="#FCCE38"/>
<stop offset="0.00850916" stop-color="#FCCD38"/>
<stop offset="0.3748" stop-color="#FBB53A"/>
<stop offset="0.7145" stop-color="#FBA73B"/>
<stop offset="1" stop-color="#FBA23B"/>
</linearGradient>
<radialGradient id="paint14_radial_72_620" cx="0" cy="0" r="1" gradientUnits="userSpaceOnUse" gradientTransform="translate(25.8371 13.7198) rotate(43.4002) scale(2.64297 2.63885)">
<stop stop-color="#FFBC47"/>
<stop offset="0.2588" stop-color="#FEC14D" stop-opacity="0.7412"/>
<stop offset="0.6207" stop-color="#FDCD60" stop-opacity="0.3793"/>
<stop offset="1" stop-color="#FBE07A" stop-opacity="0"/>
</radialGradient>
<linearGradient id="paint15_linear_72_620" x1="26.1333" y1="14.9126" x2="24.628" y2="8.19165" gradientUnits="userSpaceOnUse">
<stop stop-color="#FCCE38"/>
<stop offset="0.2151" stop-color="#FCD44F"/>
<stop offset="0.5049" stop-color="#FBDB67"/>
<stop offset="0.774" stop-color="#FBDF75"/>
<stop offset="1" stop-color="#FBE07A"/>
</linearGradient>
<linearGradient id="paint16_linear_72_620" x1="24.7167" y1="15.9084" x2="28.5454" y2="15.5133" gradientUnits="userSpaceOnUse">
<stop stop-color="#FCCE38"/>
<stop offset="0.2151" stop-color="#FCD44F"/>
<stop offset="0.5049" stop-color="#FBDB67"/>
<stop offset="0.774" stop-color="#FBDF75"/>
<stop offset="1" stop-color="#FBE07A"/>
</linearGradient>
<linearGradient id="paint17_linear_72_620" x1="22.945" y1="16.956" x2="24.718" y2="9.97511" gradientUnits="userSpaceOnUse">
<stop stop-color="#FCCE38"/>
<stop offset="0.3638" stop-color="#FCCE38"/>
<stop offset="1" stop-color="#C86F34"/>
</linearGradient>
<linearGradient id="paint18_linear_72_620" x1="23.0284" y1="10.7627" x2="27.2426" y2="13.5798" gradientUnits="userSpaceOnUse">
<stop stop-color="#FCCE38"/>
<stop offset="0.2151" stop-color="#FCD44F"/>
<stop offset="0.5049" stop-color="#FBDB67"/>
<stop offset="0.774" stop-color="#FBDF75"/>
<stop offset="1" stop-color="#FBE07A"/>
</linearGradient>
<linearGradient id="paint19_linear_72_620" x1="23.2713" y1="16.9506" x2="24.2001" y2="11.6789" gradientUnits="userSpaceOnUse">
<stop stop-color="#FCCE38"/>
<stop offset="0.00850916" stop-color="#FCCD38"/>
<stop offset="0.3748" stop-color="#FBB53A"/>
<stop offset="0.7145" stop-color="#FBA73B"/>
<stop offset="1" stop-color="#FBA23B"/>
</linearGradient>
<linearGradient id="paint20_linear_72_620" x1="27.6606" y1="14.962" x2="26.2827" y2="11.8311" gradientUnits="userSpaceOnUse">
<stop stop-color="#FCCE38"/>
<stop offset="0.00850916" stop-color="#FCCD38"/>
<stop offset="0.3748" stop-color="#FBB53A"/>
<stop offset="0.7145" stop-color="#FBA73B"/>
<stop offset="1" stop-color="#FBA23B"/>
</linearGradient>
<radialGradient id="paint21_radial_72_620" cx="0" cy="0" r="1" gradientUnits="userSpaceOnUse" gradientTransform="translate(23.1545 43.1555) rotate(-136.6) scale(2.34947 2.34581)">
<stop stop-color="#FFBC47"/>
<stop offset="0.2588" stop-color="#FEC14D" stop-opacity="0.7412"/>
<stop offset="0.6207" stop-color="#FDCD60" stop-opacity="0.3793"/>
<stop offset="1" stop-color="#FBE07A" stop-opacity="0"/>
</radialGradient>
<linearGradient id="paint22_linear_72_620" x1="22.7299" y1="41.9937" x2="24.513" y2="49.9556" gradientUnits="userSpaceOnUse">
<stop stop-color="#FCCE38"/>
<stop offset="0.2151" stop-color="#FCD44F"/>
<stop offset="0.5049" stop-color="#FBDB67"/>
<stop offset="0.774" stop-color="#FBDF75"/>
<stop offset="1" stop-color="#FBE07A"/>
</linearGradient>
<linearGradient id="paint23_linear_72_620" x1="24.0964" y1="40.5385" x2="20.7126" y2="40.8876" gradientUnits="userSpaceOnUse">
<stop stop-color="#FCCE38"/>
<stop offset="0.2151" stop-color="#FCD44F"/>
<stop offset="0.5049" stop-color="#FBDB67"/>
<stop offset="0.774" stop-color="#FBDF75"/>
<stop offset="1" stop-color="#FBE07A"/>
</linearGradient>
<linearGradient id="paint24_linear_72_620" x1="20.3481" y1="47.4042" x2="22.4977" y2="38.9404" gradientUnits="userSpaceOnUse">
<stop stop-color="#FCCE38"/>
<stop offset="0.3638" stop-color="#FCCE38"/>
<stop offset="1" stop-color="#C86F34"/>
</linearGradient>
<linearGradient id="paint25_linear_72_620" x1="25.4797" y1="46.7015" x2="21.4968" y2="44.0392" gradientUnits="userSpaceOnUse">
<stop stop-color="#FCCE38"/>
<stop offset="0.2151" stop-color="#FCD44F"/>
<stop offset="0.5049" stop-color="#FBDB67"/>
<stop offset="0.774" stop-color="#FBDF75"/>
<stop offset="1" stop-color="#FBE07A"/>
</linearGradient>
<linearGradient id="paint26_linear_72_620" x1="25.4281" y1="39.4828" x2="24.3077" y2="45.8428" gradientUnits="userSpaceOnUse">
<stop stop-color="#FCCE38"/>
<stop offset="0.00850916" stop-color="#FCCD38"/>
<stop offset="0.3748" stop-color="#FBB53A"/>
<stop offset="0.7145" stop-color="#FBA73B"/>
<stop offset="1" stop-color="#FBA23B"/>
</linearGradient>
<linearGradient id="paint27_linear_72_620" x1="21.5531" y1="41.7753" x2="23.2432" y2="45.6153" gradientUnits="userSpaceOnUse">
<stop stop-color="#FCCE38"/>
<stop offset="0.00850916" stop-color="#FCCD38"/>
<stop offset="0.3748" stop-color="#FBB53A"/>
<stop offset="0.7145" stop-color="#FBA73B"/>
<stop offset="1" stop-color="#FBA23B"/>
</linearGradient>
</defs>
</svg>
